<svg width="156" height="46" viewBox="0 0 156 46" fill="none" xmlns="http://www.w3.org/2000/svg">
<g clip-path="url(#clip0_429_7423)">
<rect width="156" height="46" fill="white"/>
<path d="M7.35382 11.2761L1.01225 28.6994C-0.651369 33.2701 1.70533 38.3241 6.2761 39.9877C10.8469 41.6513 15.9008 39.2946 17.5644 34.7239L23.906 17.3006C25.5696 12.7298 23.2129 7.67584 18.6422 6.01222C14.0714 4.3486 9.01744 6.70531 7.35382 11.2761Z" fill="#0066FF"/>
<path d="M26.2356 21.5472C26.2356 21.5472 30.9079 20.4047 32.8012 25.1714L33.0943 25.9721L36.2799 34.7273C37.9445 39.2963 42.997 41.6517 47.5666 39.9889C49.7616 39.1902 51.5494 37.5522 52.5365 35.4353C53.5237 33.3184 53.6294 30.896 52.8304 28.7011L46.4888 11.2767C45.6908 9.08116 44.0531 7.29261 41.9361 6.30464C39.8192 5.31667 37.3965 5.21023 35.2011 6.00875C32.6816 6.92263 30.7168 8.93626 29.8651 11.4774L26.2356 21.5472Z" fill="#D1D5E4"/>
<path d="M36.2799 34.7241L33.0943 25.9721L32.8033 25.1746C30.91 20.4078 26.2377 21.5504 26.2377 21.5504L23.6329 28.7C22.8336 30.895 22.9391 33.3177 23.9263 35.4349C24.9135 37.552 26.7014 39.1902 28.8967 39.9889C32.1585 41.1771 35.8141 40.3384 38.2317 37.8471C37.3676 36.9558 36.7024 35.8914 36.2799 34.7241Z" fill="#D1D5E4"/>
<path d="M36.2799 34.7241L33.0943 25.9721L32.8033 25.1746C30.91 20.4078 26.2377 21.5504 26.2377 21.5504L23.6329 28.7C22.8336 30.895 22.9391 33.3177 23.9263 35.4349C24.9135 37.552 26.7014 39.1902 28.8967 39.9889C32.1585 41.1771 35.8141 40.3384 38.2317 37.8471C37.3676 36.9558 36.7024 35.8914 36.2799 34.7241Z" fill="url(#paint0_linear_429_7423)" fill-opacity="0.4"/>
<path d="M75.1607 31.6863V24.5653C75.1607 22.8121 74.2443 21.2214 72.437 21.2214C70.6573 21.2214 69.6049 22.8143 69.6049 24.5653V31.6863H66.3131V18.3618H69.3618L69.6039 19.9801C70.3058 18.6326 71.8423 18.1462 73.1081 18.1462C74.7009 18.1462 76.2937 18.794 77.0455 20.6279C78.2327 18.7398 79.7703 18.2004 81.4959 18.2004C85.2719 18.2004 87.1334 20.5195 87.1334 24.5122V31.6863H83.8416V24.5122C83.8416 22.759 83.1131 21.2756 81.3334 21.2756C79.5537 21.2756 78.4472 22.8121 78.4472 24.5674V31.6884L75.1607 31.6863Z" fill="#031A34"/>
<path d="M90.011 31.6862V18.8481H93.4632V31.6862H90.011ZM94.7576 12.8601H91.2247L90.0917 16.6903V16.8517H92.7613L94.7576 12.995V12.8601Z" fill="#031A34"/>
<path d="M104.714 21.9223C103.77 21.0325 102.696 20.7362 101.422 20.7362C99.8578 20.7362 98.9945 21.2215 98.9945 22.0572C98.9945 22.9205 99.7771 23.4058 101.476 23.5141C103.984 23.6755 107.167 24.2425 107.167 27.7754C107.167 30.1221 105.255 32.145 101.45 32.145C99.345 32.145 97.2414 31.7946 95.2992 29.7717L96.9175 27.425C97.8615 28.4762 100.019 29.2588 101.503 29.2854C102.744 29.313 103.904 28.6652 103.904 27.6926C103.904 26.7751 103.149 26.3981 101.261 26.2898C98.7524 26.1008 95.7579 25.1844 95.7579 22.1634C95.7579 19.0839 98.9436 18.0093 101.368 18.0093C103.445 18.0093 105.009 18.4139 106.547 19.7624L104.714 21.9223Z" fill="#031A34"/>
<path d="M113.663 14.6399V18.4159H117.331V21.248H113.636V26.9927C113.636 28.2606 114.338 28.8808 115.362 28.8808C115.917 28.8653 116.461 28.7271 116.955 28.4762L117.873 31.2817C117.009 31.6424 116.085 31.8345 115.149 31.8477C112.263 31.9539 110.371 30.3111 110.371 26.9927V21.248H107.889V18.4159H110.371V14.9903L113.663 14.6399Z" fill="#031A34"/>
<path d="M136.748 29.9871C135.21 31.4971 133.592 32.0907 131.623 32.0907C127.766 32.0907 124.556 29.7716 124.556 25.0515C124.556 20.3314 127.766 18.0112 131.623 18.0112C133.511 18.0112 134.968 18.5507 136.424 19.98L134.347 22.1653C133.616 21.4993 132.666 21.1248 131.677 21.113C129.465 21.113 127.847 22.7313 127.847 25.0515C127.847 27.5862 129.574 28.9348 131.623 28.9348C132.675 28.9348 133.727 28.6385 134.536 27.8294L136.748 29.9871Z" fill="#031A34"/>
<path d="M148.248 18.3893H151.404V31.6861H148.302L148.141 29.744C147.384 31.3081 145.308 32.0642 143.825 32.0907C139.886 32.1173 136.974 29.6898 136.974 25.0239C136.974 20.4387 140.021 18.0389 143.906 18.0654C145.685 18.0654 147.384 18.9022 148.141 20.2231L148.248 18.3893ZM140.265 25.0239C140.265 27.5597 142.018 29.0697 144.202 29.0697C149.381 29.0697 149.381 21.0057 144.202 21.0057C142.018 21.0057 140.265 22.4892 140.265 25.0239Z" fill="#031A34"/>
<path d="M119.349 18.3352V31.6862H122.64V18.3352H119.349Z" fill="#031A34"/>
<path d="M122.956 14.6323C122.956 17.2955 118.921 17.2955 118.921 14.6323C118.921 11.9691 122.956 11.9681 122.956 14.6323Z" fill="#031A34"/>
</g>
<defs>
<linearGradient id="paint0_linear_429_7423" x1="40.2107" y1="15.422" x2="24.1607" y2="40.5725" gradientUnits="userSpaceOnUse">
<stop/>
<stop offset="1" stop-opacity="0"/>
</linearGradient>
<clipPath id="clip0_429_7423">
<rect width="156" height="46" fill="white"/>
</clipPath>
</defs>
</svg>
