<svg xmlns="http://www.w3.org/2000/svg" width="838" height="245" viewBox="0 0 838 245">
  <defs>
    <linearGradient id="mistica-ios-a" x1="24.591%" x2="89.844%" y1="107.73%" y2="-24.007%">
      <stop offset="0%" stop-color="#003245" stop-opacity="0"/>
      <stop offset="100%" stop-color="#003245"/>
    </linearGradient>
  </defs>
  <g fill="none" fill-rule="evenodd">
    <rect width="838" height="245" fill="#FFF"/>
    <g transform="translate(-450.572 -284.109)">
      <rect width="838" height="245.086" x="450.572" y="284.685" fill="#FFF" fill-rule="nonzero"/>
      <rect width="838" height="430.238" x="450.572" y="192.109" fill="#FFF" fill-opacity=".908" fill-rule="nonzero"/>
      <g stroke="#EAEAEA" stroke-width="2.14" opacity=".43">
        <path d="M558.784463,281.621956 L407.524003,696.684608 C367.845392,805.570256 247.30002,861.710461 138.278819,822.078658 C29.2576183,782.446856 -26.9550136,662.051363 12.7261302,553.168247 L163.984055,138.105595 C203.665198,29.222478 324.210571,-26.9202604 433.231772,12.7090151 L433.231772,12.7115447 C542.25297,52.3408202 598.463073,172.738839 558.784463,281.621956 Z M644.286079,382.959217 C644.286079,382.959217 755.238783,355.874588 800.212766,468.84015 L807.112155,487.755396 L882.792593,695.251677 C922.303817,803.577555 1042.3324,859.430753 1150.88564,820.004817 C1259.4389,780.576355 1315.41186,660.796648 1275.90064,552.47077 L1125.28975,139.538886 C1085.77853,31.2104794 965.749943,-24.6427206 857.19416,14.7857448 C795.005918,37.3722833 750.077548,86.3304325 730.468889,144.396015 L644.286079,382.959217 Z"/>
        <path d="M644.757885,381.712022 L583.080427,551.290613 C543.66408,659.661865 599.502642,779.486404 707.795226,818.930465 C787.525237,847.968417 873.453078,825.337531 928.970626,768.134286"/>
      </g>
      <g fill-rule="nonzero" transform="translate(666.226 366.558)">
        <rect width="72.881" height="35.506" x="-7.186" y="22.705" fill="#003245" rx="17.753" transform="rotate(-70 29.255 40.458)"/>
        <path fill="#00EDFF" d="M57.0246692,37.529129 C57.0246692,37.529129 66.4428046,35.2259668 70.2592899,44.8346054 L70.8500639,46.4485313 L77.2715198,64.0968327 C80.6268129,73.3068171 90.8114572,78.0546683 100.022738,74.7029374 L100.022738,74.7029374 C104.447273,73.09298 108.050936,69.7911615 110.040816,65.5239788 C112.030696,61.2567961 112.243759,56.373867 110.633124,51.9495785 L97.8501456,16.826355 C96.2414162,12.4006151 92.9402469,8.79533918 88.6730337,6.80383908 C84.40582,4.81233896 79.5222042,4.59779196 75.0967867,6.20740741 L75.0967867,6.20740741 C70.0181268,8.04955375 66.0576746,12.108525 64.340848,17.2309068 L57.0246692,37.529129 Z"/>
        <path fill="#00EDFF" d="M77.2715198,64.0904112 L70.8500639,46.4485313 L70.2635709,44.8410268 C66.4470856,35.2323883 57.0289502,37.5355504 57.0289502,37.5355504 L51.7783397,51.9474381 C50.167041,56.3719903 50.379762,61.2554631 52.3696892,65.5231488 C54.3596162,69.790834 57.9636777,73.0929998 62.3887254,74.7029374 L62.3887254,74.7029374 C68.9637746,77.0981121 76.3324439,75.4074509 81.2057318,70.3855785 C79.4639274,68.5890013 78.123014,66.4433943 77.2715198,64.0904112 Z"/>
        <path fill="url(#mistica-ios-a)" d="M77.2715198,64.0904112 L70.8500639,46.4485313 L70.2635709,44.8410268 C66.4470856,35.2323883 57.0289502,37.5355504 57.0289502,37.5355504 L51.7783397,51.9474381 C50.167041,56.3719903 50.379762,61.2554631 52.3696892,65.5231488 C54.3596162,69.790834 57.9636777,73.0929998 62.3887254,74.7029374 L62.3887254,74.7029374 C68.9637746,77.0981121 76.3324439,75.4074509 81.2057318,70.3855785 C79.4639274,68.5890013 78.123014,66.4433943 77.2715198,64.0904112 Z"/>
        <path fill="#003245" d="M155.64539,57.9664828 L155.64539,43.6123883 C155.64539,40.078447 153.798151,36.872 150.155045,36.872 C146.567591,36.872 144.44637,40.082728 144.44637,43.6123883 L144.44637,57.9664828 L137.810866,57.9664828 L137.810866,31.1076731 L143.956199,31.1076731 L144.44423,34.3697727 C145.859091,31.6534968 148.956373,30.6731545 151.507831,30.6731545 C154.718559,30.6731545 157.929287,31.9788506 159.444751,35.6754687 C161.837814,31.8696858 164.937236,30.7823193 168.415525,30.7823193 C176.027091,30.7823193 179.779361,35.4571392 179.779361,43.505364 L179.779361,57.9664828 L173.143857,57.9664828 L173.143857,43.505364 C173.143857,39.9714227 171.675484,36.9811648 168.088031,36.9811648 C164.500577,36.9811648 162.270192,40.078447 162.270192,43.6166692 L162.270192,57.9707637 L155.64539,57.9664828 Z M185.580077,57.9664828 L185.580077,32.0880153 L192.538794,32.0880153 L192.538794,57.9664828 L185.580077,57.9664828 Z M195.148046,20.0178186 L188.026651,20.0178186 L185.742754,27.7385492 L185.742754,28.0639029 L191.123934,28.0639029 L195.148046,20.2896603 L195.148046,20.0178186 Z M215.217236,38.2847203 C213.314345,36.4909936 211.150314,35.8937982 208.581732,35.8937982 C205.428797,35.8937982 203.688582,36.872 203.688582,38.5565619 C203.688582,40.2967765 205.26612,41.2749783 208.690897,41.4933078 C213.746723,41.8186616 220.161757,42.9616807 220.161757,50.0830754 C220.161757,54.8135479 216.308884,58.8911724 208.637384,58.8911724 C204.394943,58.8911724 200.154641,58.1848123 196.239693,54.1071877 L199.501793,49.3767152 C201.404685,51.4957957 205.754151,53.0733333 208.744409,53.1268455 C211.246636,53.1824981 213.584046,51.876802 213.584046,49.9161175 C213.584046,48.0667382 212.062161,47.3068659 208.256378,47.0885364 C203.200552,46.70753 197.164383,44.8602912 197.164383,38.7706105 C197.164383,32.5632031 203.585839,30.3970319 208.472567,30.3970319 C212.659356,30.3970319 215.812291,31.2125568 218.911714,33.9309732 L215.217236,38.2847203 Z M233.257246,23.605272 L233.257246,31.2168378 L240.650483,31.2168378 L240.650483,36.9255121 L233.201594,36.9255121 L233.201594,48.5055377 C233.201594,51.0612771 234.616455,52.3113206 236.682023,52.3113206 C237.799385,52.2801105 238.895933,52.0015872 239.892751,51.4957957 L241.74213,57.1509579 C240.001556,57.8780235 238.137924,58.2652811 236.251785,58.2918365 C230.433946,58.5058851 226.619602,55.1945543 226.619602,48.5055377 L226.619602,36.9255121 L221.617287,36.9255121 L221.617287,31.2168378 L226.619602,31.2168378 L226.619602,24.3116322 L233.257246,23.605272 Z M279.789257,54.5417063 C276.689834,57.5854764 273.427734,58.7820077 269.459275,58.7820077 C261.685032,58.7820077 255.214345,54.1071877 255.214345,44.5927305 C255.214345,35.0782733 261.685032,30.4013129 269.459275,30.4013129 C273.265057,30.4013129 276.201803,31.4886794 279.136409,34.3697727 L274.949619,38.7748914 C273.476381,37.4323769 271.561479,36.6775372 269.568439,36.6536705 C265.109808,36.6536705 261.847709,39.9157701 261.847709,44.5927305 C261.847709,49.702069 265.328138,52.4204853 269.459275,52.4204853 C271.580496,52.4204853 273.699576,51.8232899 275.330626,50.1922401 L279.789257,54.5417063 Z M302.970713,31.1633257 L309.332235,31.1633257 L309.332235,57.9664828 L303.079877,57.9664828 L302.754524,54.0515351 C301.230498,57.20447 297.045849,58.7284955 294.055591,58.7820077 C286.116531,58.8355198 280.24518,53.9423704 280.24518,44.5370779 C280.24518,35.2944623 286.388373,30.4569655 294.218268,30.5104777 C297.805722,30.5104777 301.230498,32.1971801 302.754524,34.8599438 L302.970713,31.1633257 Z M286.878544,44.5370779 C286.878544,49.6485568 290.412485,52.6923269 294.815464,52.6923269 C305.25461,52.6923269 305.25461,36.4374815 294.815464,36.4374815 C290.412485,36.4374815 286.878544,39.4277395 286.878544,44.5370779 Z"/>
        <polygon fill="#003245" points="244.717 31.054 244.717 57.966 251.353 57.966 251.353 31.054"/>
        <path fill="#003245" d="M251.988633,23.5902886 C251.988633,28.9586258 243.854789,28.9586258 243.854789,23.5902886 C243.854789,18.2219515 251.988633,18.219811 251.988633,23.5902886 Z"/>
        <text fill="#003245" font-family="Nexa-Light, Nexa" font-size="55.653" font-weight="300" transform="translate(314.651 6.421)">
          <tspan x="0" y="52">iOS</tspan>
        </text>
      </g>
    </g>
  </g>
</svg>
