<svg width="1566" height="458" viewBox="0 0 1566 458" fill="none" xmlns="http://www.w3.org/2000/svg">
<g clip-path="url(#clip0_21_199)">
<path d="M1566 -173H0V631H1566V-173Z" fill="white"/>
<g opacity="0.5">
<path opacity="0.3" fill-rule="evenodd" clip-rule="evenodd" d="M202.22 -5.72314L-80.4456 769.919C-154.594 973.397 -379.862 1078.31 -583.594 1004.25C-787.325 930.186 -892.372 705.199 -818.218 501.725L-535.557 -273.917C-461.404 -477.391 -236.136 -582.307 -32.4046 -508.25V-508.245C171.327 -434.189 276.369 -209.197 202.22 -5.72314ZM362 183.649C362 183.649 569.341 133.035 653.386 344.138L666.279 379.486L807.705 767.241C881.541 969.674 1105.84 1074.05 1308.7 1000.37C1511.56 926.69 1616.16 702.854 1542.32 500.422L1260.87 -271.239C1187.03 -473.676 962.731 -578.051 759.869 -504.369C643.655 -462.161 559.696 -370.671 523.053 -262.162L362 183.649Z" stroke="#D1D5E4" stroke-width="4"/>
<path opacity="0.3" d="M362.882 181.319L247.623 498.216C173.964 700.733 278.312 924.654 480.682 998.364C629.676 1052.63 790.252 1010.34 894 903.439" stroke="#D1D5E4" stroke-width="4"/>
</g>
<path d="M689.86 261.324V234.5C689.86 227.896 686.408 221.904 679.6 221.904C672.896 221.904 668.932 227.904 668.932 234.5V261.324H656.532V211.132H668.016L668.928 217.228C671.572 212.152 677.36 210.32 682.128 210.32C688.128 210.32 694.128 212.76 696.96 219.668C701.432 212.556 707.224 210.524 713.724 210.524C727.948 210.524 734.96 219.26 734.96 234.3V261.324H722.56V234.3C722.56 227.696 719.816 222.108 713.112 222.108C706.408 222.108 702.24 227.896 702.24 234.508V261.332L689.86 261.324ZM745.8 261.324V212.964H758.804V261.324H745.8ZM763.68 190.408H750.372L746.104 204.836V205.444H756.16L763.68 190.916V190.408ZM801.184 224.544C797.628 221.192 793.584 220.076 788.784 220.076C782.892 220.076 779.64 221.904 779.64 225.052C779.64 228.304 782.588 230.132 788.988 230.54C798.436 231.148 810.424 233.284 810.424 246.592C810.424 255.432 803.224 263.052 788.888 263.052C780.96 263.052 773.036 261.732 765.72 254.112L771.816 245.272C775.372 249.232 783.5 252.18 789.088 252.28C793.764 252.384 798.132 249.944 798.132 246.28C798.132 242.824 795.288 241.404 788.176 240.996C778.728 240.284 767.448 236.832 767.448 225.452C767.448 213.852 779.448 209.804 788.58 209.804C796.404 209.804 802.296 211.328 808.088 216.408L801.184 224.544ZM834.896 197.112V211.336H848.712V222.004H834.792V243.644C834.792 248.42 837.436 250.756 841.296 250.756C843.384 250.698 845.433 250.177 847.296 249.232L850.752 259.8C847.499 261.159 844.017 261.882 840.492 261.932C829.62 262.332 822.492 256.144 822.492 243.644V222.004H813.144V211.336H822.492V198.432L834.896 197.112ZM921.852 254.924C916.06 260.612 909.964 262.848 902.548 262.848C888.02 262.848 875.928 254.112 875.928 236.332C875.928 218.552 888.02 209.812 902.548 209.812C909.66 209.812 915.148 211.844 920.632 217.228L912.808 225.46C910.055 222.951 906.476 221.541 902.752 221.496C894.42 221.496 888.324 227.592 888.324 236.332C888.324 245.88 894.828 250.96 902.548 250.96C906.512 250.96 910.472 249.844 913.52 246.796L921.852 254.924ZM965.172 211.236H977.06V261.324H965.376L964.768 254.008C961.92 259.9 954.1 262.748 948.512 262.848C933.676 262.948 922.704 253.804 922.704 236.228C922.704 218.956 934.184 209.916 948.816 210.016C955.52 210.016 961.92 213.168 964.768 218.144L965.172 211.236ZM935.1 236.228C935.1 245.78 941.704 251.468 949.932 251.468C969.44 251.468 969.44 221.092 949.932 221.092C941.704 221.092 935.1 226.68 935.1 236.228Z" fill="#031A34"/>
<g clip-path="url(#clip1_21_199)">
<path d="M459.647 197.686L444.298 239.924C440.271 251.004 445.975 263.256 457.038 267.289C468.101 271.322 480.334 265.609 484.36 254.529L499.709 212.291C503.735 201.21 498.031 188.959 486.969 184.926C475.906 180.893 463.673 186.606 459.647 197.686Z" fill="#0066FF"/>
<path d="M505.347 222.586C505.347 222.586 516.656 219.816 521.238 231.372L521.948 233.313L529.658 254.537C533.687 265.613 545.916 271.323 556.976 267.292C562.289 265.356 566.616 261.385 569.005 256.253C571.394 251.122 571.65 245.249 569.716 239.928L554.367 197.688C552.436 192.366 548.472 188.03 543.348 185.635C538.224 183.24 532.361 182.982 527.047 184.917C520.949 187.133 516.193 192.014 514.132 198.175L505.347 222.586Z" fill="#D1D5E4"/>
<path d="M529.658 254.529L521.948 233.313L521.243 231.379C516.661 219.824 505.352 222.594 505.352 222.594L499.048 239.926C497.113 245.247 497.369 251.12 499.758 256.252C502.147 261.385 506.475 265.356 511.788 267.292C519.683 270.173 528.53 268.14 534.382 262.1C532.291 259.94 530.68 257.359 529.658 254.529Z" fill="#D1D5E4"/>
<path d="M529.658 254.529L521.948 233.313L521.243 231.379C516.661 219.824 505.352 222.594 505.352 222.594L499.048 239.926C497.113 245.247 497.369 251.12 499.758 256.252C502.147 261.385 506.475 265.356 511.788 267.292C519.683 270.173 528.53 268.14 534.382 262.1C532.291 259.94 530.68 257.359 529.658 254.529Z" fill="url(#paint0_linear_21_199)" fill-opacity="0.4"/>
</g>
<path d="M856.312 211.032V261.324H868.712V211.032H856.312Z" fill="#031A34"/>
<path d="M869.9 197.084C869.9 207.116 854.7 207.116 854.7 197.084C854.7 187.052 869.9 187.048 869.9 197.084Z" fill="#031A34"/>
<path d="M991.305 194.225C991.305 196.955 993.405 198.32 995.505 198.32C997.5 198.32 999.6 196.955 999.6 194.225C999.6 191.495 997.5 190.13 995.505 190.13C993.405 190.13 991.305 191.495 991.305 194.225ZM992.775 210.92H997.92V263H992.775V210.92Z" fill="#031A34"/>
<path d="M1047.53 188.345C1022.75 188.345 1010.46 206.405 1010.46 226.145C1010.46 245.57 1022.85 264.26 1047.53 264.26C1072.41 264.26 1084.59 245.36 1084.59 226.145C1084.59 206.405 1072.2 188.345 1047.53 188.345ZM1047.53 193.595C1068.63 193.595 1079.13 209.24 1079.13 226.25C1079.13 242.84 1068.53 259.01 1047.53 259.01C1026.53 259.01 1016.03 242.63 1016.03 226.04C1016.03 208.82 1026.53 193.595 1047.53 193.595Z" fill="#031A34"/>
<path d="M1147.72 203.675L1152.34 200.945C1145.1 190.13 1135.96 188.45 1125.46 188.45C1113.39 188.45 1097.22 193.28 1097.53 208.82C1097.53 222.365 1111.29 225.095 1124.73 227.72C1136.8 230.03 1148.98 232.445 1148.88 243.47C1148.88 256.49 1134.49 259.01 1125.46 259.01C1116.43 259.01 1104.88 254.6 1100.37 245.675L1095.33 248.195C1101 259.43 1114.02 264.155 1125.46 264.155C1137.75 264.155 1154.44 260.165 1154.55 243.575C1154.55 227.72 1139.85 225.2 1125.67 222.47C1113.28 220.16 1103.2 217.955 1103.2 208.61C1103.2 196.85 1116.85 193.7 1125.46 193.7C1133.76 193.805 1142.37 195.065 1147.72 203.675Z" fill="#031A34"/>
</g>
<defs>
<linearGradient id="paint0_linear_21_199" x1="539.172" y1="207.737" x2="500.237" y2="268.651" gradientUnits="userSpaceOnUse">
<stop/>
<stop offset="1" stop-opacity="0"/>
</linearGradient>
<clipPath id="clip0_21_199">
<rect width="1566" height="458" rx="24" fill="white"/>
</clipPath>
<clipPath id="clip1_21_199">
<rect width="129.447" height="85.8293" fill="white" transform="translate(442.59 183.206)"/>
</clipPath>
</defs>
</svg>
