<svg width="1566" height="458" viewBox="0 0 1566 458" fill="none" xmlns="http://www.w3.org/2000/svg">
<g clip-path="url(#clip0_21_199)">
<path d="M1566 -173H0V631H1566V-173Z" fill="white"/>
<g opacity="0.5">
<path opacity="0.3" fill-rule="evenodd" clip-rule="evenodd" d="M202.22 -5.72314L-80.4456 769.919C-154.594 973.397 -379.862 1078.31 -583.594 1004.25C-787.325 930.186 -892.372 705.199 -818.218 501.725L-535.557 -273.917C-461.404 -477.391 -236.136 -582.307 -32.4046 -508.25V-508.245C171.327 -434.189 276.369 -209.197 202.22 -5.72314ZM362 183.649C362 183.649 569.341 133.035 653.386 344.138L666.279 379.486L807.705 767.241C881.541 969.674 1105.84 1074.05 1308.7 1000.37C1511.56 926.69 1616.16 702.854 1542.32 500.422L1260.87 -271.239C1187.03 -473.676 962.731 -578.051 759.869 -504.369C643.655 -462.161 559.696 -370.671 523.053 -262.162L362 183.649Z" stroke="#D1D5E4" stroke-width="4"/>
<path opacity="0.3" d="M362.882 181.319L247.623 498.216C173.964 700.733 278.312 924.654 480.682 998.364C629.676 1052.63 790.252 1010.34 894 903.439" stroke="#D1D5E4" stroke-width="4"/>
</g>
<g clip-path="url(#clip1_21_199)">
<path d="M459.647 197.686L444.298 239.924C440.271 251.004 445.975 263.256 457.038 267.289C468.101 271.322 480.333 265.609 484.36 254.529L499.709 212.291C503.735 201.21 498.031 188.959 486.968 184.926C475.906 180.893 463.673 186.606 459.647 197.686Z" fill="#0066FF"/>
<path d="M505.347 222.586C505.347 222.586 516.656 219.816 521.238 231.372L521.948 233.313L529.658 254.537C533.687 265.613 545.916 271.323 556.976 267.292C562.289 265.356 566.616 261.385 569.005 256.253C571.394 251.122 571.65 245.249 569.716 239.928L554.367 197.688C552.436 192.366 548.472 188.03 543.348 185.635C538.224 183.24 532.361 182.982 527.047 184.917C520.949 187.133 516.193 192.014 514.132 198.175L505.347 222.586Z" fill="#D1D5E4"/>
<path d="M529.658 254.529L521.948 233.313L521.243 231.379C516.661 219.824 505.352 222.594 505.352 222.594L499.048 239.926C497.113 245.247 497.369 251.12 499.758 256.252C502.147 261.385 506.475 265.356 511.788 267.292C519.683 270.173 528.53 268.14 534.382 262.1C532.29 259.939 530.68 257.359 529.658 254.529Z" fill="#D1D5E4"/>
<path d="M529.658 254.529L521.948 233.313L521.243 231.379C516.661 219.824 505.352 222.594 505.352 222.594L499.048 239.926C497.113 245.247 497.369 251.12 499.758 256.252C502.147 261.385 506.475 265.356 511.788 267.292C519.683 270.173 528.53 268.14 534.382 262.1C532.29 259.939 530.68 257.359 529.658 254.529Z" fill="url(#paint0_linear_21_199)" fill-opacity="0.4"/>
</g>
<path d="M670.23 261.915V230.52C670.23 224.535 674.535 220.23 680.1 220.23C685.455 220.23 689.13 224.01 689.13 230.52V261.915H702.36V230.52C702.36 224.535 706.77 220.23 712.125 220.23C717.585 220.23 721.26 224.01 721.26 230.52V261.915H734.385V228.945C734.385 216.555 725.985 207.63 714.855 207.63C706.665 207.63 700.68 211.935 698.37 215.505H697.845C696.06 212.25 690.915 207.63 683.04 207.63C676.95 207.63 671.91 211.095 670.02 213.825H669.495L668.445 208.68H657V261.915H670.23Z" fill="#031A34"/>
<path d="M759.937 201.12L772.537 186H758.782L748.702 201.12H759.937ZM760.567 261.915V208.68H747.337V261.915H760.567Z" fill="#031A34"/>
<path d="M793.217 262.965C808.652 262.965 816.107 255.51 816.107 246.69C816.107 237.66 810.542 232.2 798.992 230.415L790.487 229.05C785.657 228.21 783.557 226.53 783.557 223.905C783.557 221.07 786.497 218.13 792.692 218.13C798.992 218.13 802.457 221.28 802.457 224.64H815.372C815.372 216.975 807.602 207.63 792.692 207.63C777.992 207.63 770.432 215.295 770.432 224.115C770.432 232.62 776.312 237.765 787.652 239.655L795.947 241.02C801.197 241.86 802.982 243.75 802.982 246.795C802.982 249.735 800.042 252.465 793.217 252.465C786.182 252.465 782.927 249 782.927 245.745H770.012C770.012 252.465 776.207 262.965 793.217 262.965Z" fill="#031A34"/>
<path d="M854.674 261.915V249.945H846.064C843.649 249.945 842.599 248.895 842.599 246.48V221.175H854.674V208.68H842.599V192.72H829.369V208.68H820.969V221.175H829.369V249.21C829.369 257.085 834.199 261.915 842.914 261.915H854.674Z" fill="#031A34"/>
<path d="M872.59 201.12C877 201.12 880.36 197.97 880.36 193.77C880.36 189.465 877 186.42 872.59 186.42C868.18 186.42 864.925 189.465 864.925 193.77C864.925 197.97 868.18 201.12 872.59 201.12ZM879.205 261.915V208.68H865.975V261.915H879.205Z" fill="#031A34"/>
<path d="M916.79 262.965C931.7 262.965 940.205 252.78 942.2 242.07H928.865C927.5 246.795 923.72 250.785 916.79 250.785C909.23 250.785 902.93 244.59 902.93 235.35C902.93 226.005 909.23 219.915 916.79 219.915C923.72 219.915 927.5 223.905 928.865 228.21H942.2C940.205 217.815 931.7 207.63 916.79 207.63C901.355 207.63 889.7 219.285 889.7 235.35C889.7 251.31 901.355 262.965 916.79 262.965Z" fill="#031A34"/>
<path d="M969.01 262.965C976.78 262.965 982.24 259.395 984.235 256.77H984.76L985.81 261.915H997.255V228C997.255 216.24 988.54 207.63 974.47 207.63C960.4 207.63 952.735 216.135 951.895 224.64H964.81C965.545 221.7 968.59 218.55 974.47 218.55C980.245 218.55 984.025 222.435 984.025 228V229.155H971.53C956.83 229.155 949.795 236.4 949.795 246.585C949.795 255.825 957.145 262.965 969.01 262.965ZM971.32 252.36C965.965 252.36 963.025 249.63 963.025 245.535C963.025 241.545 965.965 238.605 972.895 238.605H984.025V240.18C984.025 247.635 979.3 252.36 971.32 252.36Z" fill="#031A34"/>
<path d="M1014.55 197.76C1017.18 197.76 1018.96 195.975 1018.96 193.35C1018.96 190.83 1017.18 189.045 1014.55 189.045C1012.03 189.045 1010.25 190.83 1010.25 193.35C1010.25 195.975 1012.03 197.76 1014.55 197.76ZM1017.7 261.915V209.415H1011.51V261.915H1017.7Z" fill="#031A34"/>
<path d="M1066 262.965C1085.11 262.965 1100.54 247.74 1100.54 225.165C1100.54 202.59 1085.11 187.365 1066 187.365C1046.78 187.365 1031.35 202.59 1031.35 225.165C1031.35 247.74 1046.78 262.965 1066 262.965ZM1066 256.77C1050.46 256.77 1037.96 244.065 1037.96 225.165C1037.96 206.265 1050.46 193.56 1066 193.56C1081.43 193.56 1093.93 206.265 1093.93 225.165C1093.93 244.065 1081.43 256.77 1066 256.77Z" fill="#031A34"/>
<path d="M1138.41 262.965C1155.42 262.965 1164.55 254.145 1164.55 242.385C1164.55 231.885 1158.46 225.375 1144.08 222.75L1132.84 220.65C1123.71 218.97 1119.4 214.56 1119.4 207.945C1119.4 199.86 1125.6 193.56 1137.36 193.56C1150.06 193.56 1157.52 200.91 1157.52 209.94H1164.03C1164.03 197.34 1153.84 187.365 1137.36 187.365C1121.92 187.365 1112.79 196.185 1112.79 207.945C1112.79 218.235 1118.88 224.22 1130.95 226.53L1144.08 228.945C1153.84 230.835 1158.04 235.665 1158.04 242.385C1158.04 250.47 1152.16 256.77 1138.41 256.77C1125.18 256.77 1117.83 249.315 1117.83 240.39H1111.21C1111.21 252.57 1121.5 262.965 1138.41 262.965Z" fill="#031A34"/>
</g>
<defs>
<linearGradient id="paint0_linear_21_199" x1="539.172" y1="207.737" x2="500.237" y2="268.651" gradientUnits="userSpaceOnUse">
<stop/>
<stop offset="1" stop-opacity="0"/>
</linearGradient>
<clipPath id="clip0_21_199">
<rect width="1566" height="458" rx="24" fill="white"/>
</clipPath>
<clipPath id="clip1_21_199">
<rect width="129.447" height="85.8293" fill="white" transform="translate(442.59 183.206)"/>
</clipPath>
</defs>
</svg>
